<svg viewBox="0 0 86 21" fill="none" xmlns="http://www.w3.org/2000/svg">
    <path d="M1.47656 12.5527C2.04948 12.7806 2.50846 12.9564 2.85352 13.0801C3.19857 13.2038 3.57617 13.3112 3.98633 13.4023C4.40299 13.4935 4.81641 13.5391 5.22656 13.5391C5.40885 13.5391 5.53906 13.5228 5.61719 13.4902C5.63672 13.4642 5.65299 13.4251 5.66602 13.373C5.68555 13.3145 5.69531 13.2559 5.69531 13.1973C5.69531 13.0671 5.62044 12.9596 5.4707 12.875C5.23633 12.7448 4.81966 12.5397 4.2207 12.2598C3.40039 11.8691 2.74935 11.5208 2.26758 11.2148C1.79232 10.9089 1.38867 10.502 1.05664 9.99414C0.73112 9.48633 0.568359 8.84831 0.568359 8.08008C0.568359 6.97982 0.897135 6.09766 1.55469 5.43359C2.21224 4.76302 3.25391 4.42773 4.67969 4.42773C6.37891 4.42773 7.70052 4.64909 8.64453 5.0918C8.6901 5.2806 8.71289 5.51823 8.71289 5.80469C8.71289 6.35156 8.62826 6.91146 8.45898 7.48438C8.28971 8.05078 8.06836 8.4707 7.79492 8.74414C7.42383 8.62044 6.89974 8.42188 6.22266 8.14844C5.72786 7.95312 5.33398 7.80339 5.04102 7.69922C4.75456 7.58854 4.49089 7.51042 4.25 7.46484C4.11979 7.4974 4.01562 7.57552 3.9375 7.69922C3.85938 7.81641 3.82031 7.95638 3.82031 8.11914C3.82031 8.26237 3.86263 8.38281 3.94727 8.48047C4.0319 8.57812 4.1263 8.65625 4.23047 8.71484C4.34115 8.76693 4.4974 8.83854 4.69922 8.92969C4.80339 8.97526 4.90104 9.01758 4.99219 9.05664C5.08333 9.08919 5.16797 9.12174 5.24609 9.1543C5.75391 9.36914 6.1543 9.54492 6.44727 9.68164C6.74023 9.81836 7.02344 9.98112 7.29688 10.1699C7.79818 10.515 8.19206 10.9089 8.47852 11.3516C8.76497 11.7943 8.9082 12.2793 8.9082 12.8066C8.9082 13.5358 8.69987 14.1673 8.2832 14.7012C7.87305 15.2285 7.3457 15.6126 6.70117 15.8535C6.36263 15.9772 5.99154 16.0651 5.58789 16.1172C5.19076 16.1758 4.72526 16.2051 4.19141 16.2051C3.5599 16.2051 2.90885 16.0846 2.23828 15.8438C1.57422 15.5964 1.06641 15.1862 0.714844 14.6133C0.721354 14.2161 0.773438 13.8711 0.871094 13.5781C0.97526 13.2786 1.17708 12.9368 1.47656 12.5527ZM10.5879 9.65234C10.5879 6.63151 10.6465 4.55469 10.7637 3.42188L9.66016 3.22656C9.50391 2.6276 9.42578 1.98307 9.42578 1.29297C9.52344 1.16927 9.70573 1.01628 9.97266 0.833984C10.2396 0.651693 10.5488 0.492188 10.9004 0.355469C11.2585 0.21875 11.6133 0.150391 11.9648 0.150391C12.7656 0.150391 13.3613 0.355469 13.752 0.765625C14.1426 1.17578 14.3379 1.80404 14.3379 2.65039C14.3379 3.02148 14.3053 3.62044 14.2402 4.44727C14.1751 5.26758 14.0807 6.14974 13.957 7.09375C13.8333 8.03125 13.6901 8.86784 13.5273 9.60352C13.5273 9.64258 13.5501 9.67839 13.5957 9.71094C13.6413 9.74349 13.6901 9.75977 13.7422 9.75977C13.8008 9.75977 13.8398 9.73698 13.8594 9.69141C14.1198 8.65625 14.3802 7.79036 14.6406 7.09375C14.901 6.39714 15.2949 5.77865 15.8223 5.23828C16.3496 4.69792 17.0332 4.42773 17.873 4.42773C18.9147 4.42773 19.6634 4.74674 20.1191 5.38477C20.5749 6.01628 20.8027 6.8138 20.8027 7.77734C20.8027 8.63672 20.7018 9.4668 20.5 10.2676C20.2982 11.0618 20.0475 11.8919 19.748 12.7578C19.7611 12.7253 19.7155 12.8522 19.6113 13.1387L19.6309 13.1582L21.0762 12.5527C21.584 12.9889 21.8802 13.5684 21.9648 14.291C21.9648 14.3366 21.8184 14.5254 21.5254 14.8574C21.2324 15.1829 20.8451 15.4889 20.3633 15.7754C19.888 16.0553 19.3411 16.1953 18.7227 16.1953C18.1042 16.1953 17.5996 16.0293 17.209 15.6973C16.8184 15.3652 16.623 14.7988 16.623 13.998C16.623 13.36 16.6491 12.5072 16.7012 11.4395C16.7533 10.3717 16.8053 9.51237 16.8574 8.86133C16.6882 8.67904 16.4798 8.58138 16.2324 8.56836C16.0046 8.86133 15.6693 9.44727 15.2266 10.3262C14.7839 11.2051 14.4714 11.8626 14.2891 12.2988C14.276 12.39 14.2695 12.4779 14.2695 12.5625C14.2695 12.888 14.3184 13.3275 14.416 13.8809C14.5137 14.4277 14.6341 14.9388 14.7773 15.4141C14.6602 15.6354 14.4193 15.821 14.0547 15.9707C13.6901 16.1204 13.2409 16.1953 12.707 16.1953C12.2253 16.1953 11.8379 16.1562 11.5449 16.0781C11.2585 16 11.0566 15.9186 10.9395 15.834C10.8223 15.7428 10.7637 15.6875 10.7637 15.668C10.7572 15.6094 10.7409 15.4564 10.7148 15.209C10.6888 14.9551 10.6628 14.6035 10.6367 14.1543C10.6107 13.6986 10.5977 13.181 10.5977 12.6016L10.5879 9.65234ZM22.6875 10.2285C22.6875 9.05013 22.8763 8.02799 23.2539 7.16211C23.6315 6.29622 24.2109 5.62565 24.9922 5.15039C25.7734 4.66862 26.7533 4.42773 27.9316 4.42773C29.2337 4.42773 30.2559 4.67188 30.998 5.16016C31.7402 5.64193 32.2578 6.3125 32.5508 7.17188C32.8503 8.03125 33 9.08268 33 10.3262C33 11.4525 32.8014 12.4583 32.4043 13.3438C32.0137 14.2227 31.4212 14.9193 30.627 15.4336C29.8392 15.9414 28.8724 16.1953 27.7266 16.1953C25.9557 16.1953 24.6732 15.6517 23.8789 14.5645C23.0846 13.4707 22.6875 12.0254 22.6875 10.2285ZM28.127 13.334C28.459 13.334 28.6608 13.3079 28.7324 13.2559C28.8822 12.9954 28.9961 12.6276 29.0742 12.1523C29.1523 11.6771 29.1914 11.1628 29.1914 10.6094C29.1914 10.1016 29.1589 9.6263 29.0938 9.18359C29.0286 8.73438 28.9375 8.38281 28.8203 8.12891C28.7487 8.04427 28.6055 7.98242 28.3906 7.94336C28.1758 7.89779 27.9414 7.875 27.6875 7.875C27.3555 7.875 27.1276 7.91081 27.0039 7.98242C26.6784 8.54232 26.5156 9.32031 26.5156 10.3164C26.5156 10.7852 26.5514 11.2637 26.623 11.752C26.6947 12.2402 26.7858 12.6829 26.8965 13.0801C26.9746 13.1647 27.1341 13.2298 27.375 13.2754C27.6159 13.3145 27.8665 13.334 28.127 13.334ZM34.0547 8.11914C33.957 7.83919 33.8789 7.51693 33.8203 7.15234C33.7617 6.78776 33.7324 6.43294 33.7324 6.08789C33.9017 5.60612 34.1947 5.20573 34.6113 4.88672C35.0345 4.56771 35.5521 4.4082 36.1641 4.4082C36.75 4.4082 37.222 4.59375 37.5801 4.96484C37.9447 5.32943 38.2669 5.90234 38.5469 6.68359C38.8398 7.50391 39.0775 8.47396 39.2598 9.59375C39.4421 10.7135 39.569 11.9212 39.6406 13.2168L39.9238 13.2266C40.2103 12.6536 40.4577 11.8366 40.666 10.7754C40.8743 9.70768 40.9818 8.69531 40.9883 7.73828L39.7676 7.52344C39.6829 7.20443 39.6243 6.92448 39.5918 6.68359C39.5592 6.4362 39.543 6.16602 39.543 5.87305L39.5527 5.59961C39.6699 5.43034 39.8652 5.25456 40.1387 5.07227C40.4121 4.88997 40.7376 4.73698 41.1152 4.61328C41.4993 4.48958 41.8997 4.42773 42.3164 4.42773C43.9961 4.42773 44.8359 5.27083 44.8359 6.95703C44.8359 7.95964 44.6569 9.03385 44.2988 10.1797C43.9408 11.319 43.4232 12.4062 42.7461 13.4414C42.0755 14.4766 41.2845 15.3294 40.373 16C40.054 16.1302 39.6211 16.1953 39.0742 16.1953C38.7812 16.1953 38.4525 16.1302 38.0879 16C37.7233 15.8763 37.4531 15.7461 37.2773 15.6094L37.0723 14.9258C36.6035 13.3372 36.1803 11.9701 35.8027 10.8242C35.4251 9.67188 35.0801 8.81576 34.7676 8.25586L34.0547 8.11914ZM45.832 10.3262C45.832 9.19987 46.0208 8.19401 46.3984 7.30859C46.776 6.42318 47.3587 5.72331 48.1465 5.20898C48.9408 4.68815 49.9303 4.42773 51.1152 4.42773C51.7337 4.42773 52.3522 4.5026 52.9707 4.65234C53.5892 4.79557 54.1133 5.03646 54.543 5.375C54.9401 5.69401 55.2266 6.11719 55.4023 6.64453C55.5846 7.16536 55.6758 7.74479 55.6758 8.38281C55.6758 8.80599 55.64 9.23893 55.5684 9.68164C55.4902 9.81185 55.3372 9.98438 55.1094 10.1992C54.8815 10.4076 54.6146 10.6126 54.3086 10.8145C54.0026 11.0163 53.7064 11.1725 53.4199 11.2832C53.1465 11.3027 52.8633 11.3125 52.5703 11.3125C52.056 11.3125 51.5352 11.2897 51.0078 11.2441C50.4805 11.1986 50.0182 11.1465 49.6211 11.0879C49.6732 11.6413 49.8424 12.123 50.1289 12.5332C50.4154 12.9434 50.8711 13.1484 51.4961 13.1484C51.5547 13.1484 51.6491 13.1419 51.7793 13.1289C52.1764 13.0898 52.6387 12.9857 53.166 12.8164C53.6999 12.6406 54.2305 12.4388 54.7578 12.2109C55.0052 12.4583 55.1875 12.7057 55.3047 12.9531C55.4219 13.2005 55.5033 13.5553 55.5488 14.0176C55.347 14.252 55.0182 14.5384 54.5625 14.877C54.1133 15.2155 53.5632 15.5215 52.9121 15.7949C52.2611 16.0618 51.5807 16.1953 50.8711 16.1953C49.8034 16.1953 48.8887 15.9382 48.127 15.4238C47.3717 14.903 46.7988 14.1999 46.4082 13.3145C46.0241 12.4225 45.832 11.4264 45.832 10.3262ZM52.1211 8.08008C52.0299 7.98242 51.877 7.90755 51.6621 7.85547C51.4473 7.79688 51.2227 7.76758 50.9883 7.76758C50.7995 7.76758 50.6074 7.78385 50.4121 7.81641C50.2233 7.84896 50.1094 7.88477 50.0703 7.92383C49.849 8.36003 49.709 8.85482 49.6504 9.4082L52.2578 9.1543L52.1211 8.08008ZM56.7109 3.22656C56.6133 2.82943 56.5482 2.50065 56.5156 2.24023C56.4831 1.97331 56.4701 1.66732 56.4766 1.32227C56.6133 1.14648 56.8249 0.970703 57.1113 0.794922C57.4043 0.61263 57.7428 0.459635 58.127 0.335938C58.5176 0.21224 58.9212 0.150391 59.3379 0.150391C60.1517 0.150391 60.7767 0.355469 61.2129 0.765625C61.6491 1.17578 61.8672 1.78125 61.8672 2.58203C61.8672 3.15495 61.8184 4.07617 61.7207 5.3457C61.623 6.61523 61.4831 7.96615 61.3008 9.39844C61.1185 10.8242 60.9102 12.071 60.6758 13.1387L60.6953 13.1582L62.1406 12.5527C62.6484 12.9889 62.9447 13.5684 63.0293 14.291C63.0293 14.3366 62.8828 14.5254 62.5898 14.8574C62.2969 15.1829 61.9095 15.4889 61.4277 15.7754C60.9525 16.0553 60.4056 16.1953 59.7871 16.1953C59.1426 16.1953 58.6185 16.0163 58.2148 15.6582C57.8177 15.3001 57.6289 14.6882 57.6484 13.8223L57.668 12.0645C57.6745 10.3978 57.6908 8.89714 57.7168 7.5625C57.7493 6.22786 57.8145 4.85091 57.9121 3.43164L56.7109 3.22656ZM63.8203 10.2285C63.8203 9.05013 64.0091 8.02799 64.3867 7.16211C64.7643 6.29622 65.3438 5.62565 66.125 5.15039C66.9062 4.66862 67.8861 4.42773 69.0645 4.42773C70.3665 4.42773 71.3887 4.67188 72.1309 5.16016C72.873 5.64193 73.3906 6.3125 73.6836 7.17188C73.9831 8.03125 74.1328 9.08268 74.1328 10.3262C74.1328 11.4525 73.9342 12.4583 73.5371 13.3438C73.1465 14.2227 72.554 14.9193 71.7598 15.4336C70.972 15.9414 70.0052 16.1953 68.8594 16.1953C67.0885 16.1953 65.806 15.6517 65.0117 14.5645C64.2174 13.4707 63.8203 12.0254 63.8203 10.2285ZM69.2598 13.334C69.5918 13.334 69.7936 13.3079 69.8652 13.2559C70.015 12.9954 70.1289 12.6276 70.207 12.1523C70.2852 11.6771 70.3242 11.1628 70.3242 10.6094C70.3242 10.1016 70.2917 9.6263 70.2266 9.18359C70.1615 8.73438 70.0703 8.38281 69.9531 8.12891C69.8815 8.04427 69.7383 7.98242 69.5234 7.94336C69.3086 7.89779 69.0742 7.875 68.8203 7.875C68.4883 7.875 68.2604 7.91081 68.1367 7.98242C67.8112 8.54232 67.6484 9.32031 67.6484 10.3164C67.6484 10.7852 67.6842 11.2637 67.7559 11.752C67.8275 12.2402 67.9186 12.6829 68.0293 13.0801C68.1074 13.1647 68.2669 13.2298 68.5078 13.2754C68.7487 13.3145 68.9993 13.334 69.2598 13.334ZM81.1641 17.5527C81.6003 17.5527 81.9779 17.5039 82.2969 17.4062C82.3945 17.3086 82.4629 17.1947 82.502 17.0645C82.541 16.9408 82.5605 16.8236 82.5605 16.7129C82.5605 16.5957 82.5508 16.5078 82.5312 16.4492C82.5117 16.3971 82.4792 16.3483 82.4336 16.3027C82.1602 16.2572 81.8379 16.2246 81.4668 16.2051C81.1022 16.1921 80.8841 16.1823 80.8125 16.1758C79.9076 16.1367 79.1719 16.0716 78.6055 15.9805C78.0391 15.8828 77.554 15.6745 77.1504 15.3555C76.7467 15.0299 76.5449 14.5417 76.5449 13.8906C76.5449 13.5391 76.6589 13.2103 76.8867 12.9043C77.1146 12.5918 77.4108 12.3184 77.7754 12.084C77.0332 11.778 76.4375 11.319 75.9883 10.707C75.5456 10.0885 75.3242 9.29102 75.3242 8.31445C75.3242 7.3444 75.5716 6.56641 76.0664 5.98047C76.5677 5.38802 77.1829 4.97135 77.9121 4.73047C78.6413 4.48958 79.3835 4.36914 80.1387 4.36914C80.6139 4.36914 81.0794 4.41471 81.5352 4.50586C81.9909 4.59701 82.4141 4.72721 82.8047 4.89648L82.3848 2.41602C82.7819 2.17513 83.2767 2.05469 83.8691 2.05469C84.2988 2.05469 84.6992 2.1263 85.0703 2.26953C85.4414 2.41276 85.7246 2.61784 85.9199 2.88477C85.9329 2.94987 85.9395 3.05404 85.9395 3.19727C85.9395 3.73112 85.8418 4.32682 85.6465 4.98438C85.4577 5.63542 85.1289 6.15951 84.6602 6.55664C84.8945 7.02539 85.0117 7.52995 85.0117 8.07031C85.0117 8.86458 84.8587 9.59701 84.5527 10.2676C84.2533 10.9382 83.752 11.485 83.0488 11.9082C82.3457 12.3249 81.431 12.5332 80.3047 12.5332C79.9792 12.5332 79.6406 12.5137 79.2891 12.4746C79.2695 12.8001 79.3477 13.1257 79.5234 13.4512C80.4023 13.2819 81.112 13.194 81.6523 13.1875L82.3164 13.1777C83.2148 13.1777 83.8952 13.2331 84.3574 13.3438C84.8652 13.4674 85.2428 13.7474 85.4902 14.1836C85.7441 14.6198 85.8711 15.1504 85.8711 15.7754C85.8711 16.752 85.5716 17.5723 84.9727 18.2363C84.3802 18.9069 83.6087 19.4049 82.6582 19.7305C81.7142 20.056 80.7116 20.2188 79.6504 20.2188C78.6673 20.2188 77.7917 20.0527 77.0234 19.7207C76.2552 19.3887 75.7702 18.7799 75.5684 17.8945C75.7832 17.1458 76.1934 16.5794 76.7988 16.1953C77.6126 16.6836 78.3906 17.0319 79.1328 17.2402C79.8815 17.4486 80.5586 17.5527 81.1641 17.5527ZM80.5684 10.1211C81.0371 10.1211 81.3105 10.0918 81.3887 10.0332C81.5645 9.68164 81.6523 9.32031 81.6523 8.94922C81.6523 8.5651 81.5645 8.20378 81.3887 7.86523C81.304 7.79362 81.1152 7.73828 80.8223 7.69922C80.5358 7.66016 80.2233 7.64062 79.8848 7.64062C79.4616 7.64062 79.1784 7.66667 79.0352 7.71875C78.8333 8.07682 78.7324 8.43815 78.7324 8.80273C78.7324 9.17383 78.8268 9.52539 79.0156 9.85742C79.1589 9.94857 79.3737 10.0169 79.6602 10.0625C79.9531 10.1016 80.2559 10.1211 80.5684 10.1211Z"
          fill="currentColor"/>
</svg>
