<svg viewBox="0 0 32 32" fill="none" xmlns="http://www.w3.org/2000/svg">
    <g clip-path="url(#clip0_20_229)">
        <path d="M31.7453 28.8613L23.472 20.588C25.028 18.448 25.948 15.816 25.948 12.9733C25.948 5.82 20.128 0 12.9733 0C5.82 0 0 5.82 0 12.9733C0 20.128 5.82 25.9467 12.9733 25.9467C15.6853 25.9467 18.204 25.1107 20.2893 23.6827L28.6067 32L31.7453 28.8613ZM3.80533 12.9733C3.80533 7.91733 7.91867 3.804 12.9747 3.804C18.0307 3.804 22.144 7.91733 22.144 12.9733C22.144 18.0293 18.0307 22.1427 12.9747 22.1427C7.91733 22.1427 3.80533 18.0293 3.80533 12.9733Z"
              fill="currentColor"/>
    </g>
    <defs>
        <clipPath id="clip0_20_229">
            <rect width="32" height="32" fill="white"/>
        </clipPath>
    </defs>
</svg>
